#!OML:ASF H:\IndianDance\Patient Classification 1\Patient 1\Session 1\dancer.ASF
:FULLY-SPECIFIED
:DEGREES
1651
root 8.84045 10.9337 1.57467 167.052 -89.2273 -151.234
lowerback 28.0326 2.66419 0.492993
upperback 3.74835 3.21412 -0.155639
thorax -11.2868 1.30685 -1.61155
lowerneck -20.0995 0.405622 3.4895
upperneck 30.8031 -0.00205911 -3.65809
head 13.8317 -0.273853 -2.10911
rclavicle -3.99557e-014 2.98177e-014
rhumerus -30.8598 23.7263 -76.4536
rradius 71.9328
rwrist -5.73333
rhand -28.6395 30.191
rfingers 7.12502
rthumb -2.00355 0.220698
lclavicle -3.99557e-014 2.98177e-014
lhumerus -21.1491 -47.851 73.5443
lradius 58.3068
lwrist -17.5228
lhand -56.5839 8.45356
lfingers 7.12502
lthumb -28.8941 36.2355
rfemur -82.5144 -21.3076 16.4985
rtibia 102.47
rfoot -31.6184 0.246698
rtoes -12.2448
lfemur -80.7594 26.2234 -21.6654
ltibia 103.795
lfoot -31.3848 5.31362
ltoes -10.1825
1652
root 8.85029 10.9877 1.58091 171.505 -89.1754 -155.69
lowerback 27.8657 2.72622 0.522919
upperback 3.69475 3.31736 -0.0988208
thorax -11.2617 1.35772 -1.59677
lowerneck -20.1152 0.493863 3.54837
upperneck 30.8907 0.136155 -3.76046
head 13.88 -0.222559 -2.13939
rclavicle -3.39922e-014 -1.90833e-014
rhumerus -30.8602 23.7229 -76.4224
rradius 71.4862
rwrist -5.8519
rhand -28.5718 30.1078
rfingers 7.12502
rthumb -1.9382 0.136883
lclavicle -3.39922e-014 -1.90833e-014
lhumerus -20.7416 -47.5108 73.9739
lradius 57.2845
lwrist -17.9685
lhand -56.421 7.84165
lfingers 7.12502
lthumb -28.7385 35.6501
rfemur -82.1458 -21.1147 16.4107
rtibia 101.856
rfoot -31.4243 0.23831
rtoes -11.9781
lfemur -80.3267 25.9557 -21.6605
ltibia 103.188
lfoot -31.2486 5.5372
ltoes -9.9959
1653
root 8.8589 11.0441 1.58729 175.125 -89.1137 -159.327
lowerback 27.698 2.79104 0.551989
upperback 3.64097 3.42403 -0.0403974
thorax -11.2365 1.41027 -1.5806
lowerneck -20.1319 0.57485 3.60634
upperneck 30.9663 0.250971 -3.82165
head 13.9224 -0.175522 -2.15665
rclavicle -2.0276e-014 -3.97569e-015
rhumerus -30.8463 23.7403 -76.3926
rradius 71.0002
rwrist -5.98285
rhand -28.4989 30.0093
rfingers 7.12502
rthumb -1.86776 0.0377409
lclavicle -2.0276e-014 -3.97569e-015
lhumerus -20.3272 -47.158 74.4167
lradius 56.2222
lwrist -18.4259
lhand -56.2398 7.18687
lfingers 7.12502
lthumb -28.5654 35.0245
rfemur -81.7353 -20.918 16.3215
rtibia 101.217
rfoot -31.2342 0.229861
rtoes -11.7274
lfemur -79.8541 25.7036 -21.6438
ltibia 102.559
lfoot -31.1152 5.74338
ltoes -9.80296
1654
root 8.86614 11.1027 1.59388 178.081 -89.0481 -162.316
lowerback 27.5296 2.85594 0.581109
upperback 3.58918 3.53051 0.0179545
thorax -11.2084 1.46276 -1.56406
lowerneck -20.1474 0.645677 3.66104
upperneck 31.0291 0.338308 -3.83997
head 13.9579 -0.134493 -2.16039
rclavicle -1.03368e-014 7.95139e-016
rhumerus -30.8085 23.7782 -76.3675
rradius 70.4641
rwrist -6.12778
rhand -28.4149 29.8933
rfingers 7.12502
rthumb -1.78666 -0.0790029
lclavicle -1.03368e-014 7.95139e-016
lhumerus -19.9018 -46.7995 74.8676
lradius 55.1135
lwrist -18.9162
lhand -56.0598 6.56672
lfingers 7.12502
lthumb -28.3934 34.4332
rfemur -81.2775 -20.7232 16.2267
rtibia 100.553
rfoot -31.0506 0.225594
rtoes -11.4838
lfemur -79.336 25.46 -21.6159
ltibia 101.904
lfoot -30.989 5.92783
ltoes -9.58444
1655
root 8.87254 11.1633 1.60035 180.42 -88.9835 -164.695
lowerback 27.3518 2.91868 0.608305
upperback 3.53696 3.6335 0.0747886
thorax -11.176 1.51392 -1.54616
lowerneck -20.1628 0.706859 3.71602
upperneck 31.081 0.397883 -3.81687
head 13.9873 -0.0993656 -2.1519
rclavicle -1.98785e-015 2.38542e-015
rhumerus -30.7443 23.8348 -76.3528
rradius 69.8722
rwrist -6.27029
rhand -28.3307 29.7642
rfingers 7.12502
rthumb -1.70527 -0.208682
lclavicle -1.98785e-015 2.38542e-015
lhumerus -19.465 -46.4428 75.3179
lradius 53.9584
lwrist -19.4448
lhand -55.8921 6.01971
lfingers 7.12502
lthumb -28.2331 33.9128
rfemur -80.7912 -20.5295 16.1328
rtibia 99.8664
rfoot -30.8708 0.216432
rtoes -11.2676
lfemur -78.793 25.2219 -21.5807
ltibia 101.225
lfoot -30.8597 6.09564
ltoes -9.37014
1656
root 8.87839 11.2255 1.60659 182.329 -88.9307 -166.648
lowerback 27.1713 2.97436 0.634771
upperback 3.48113 3.72711 0.129044
thorax -11.1464 1.56086 -1.52712
lowerneck -20.1748 0.756265 3.77197
upperneck 31.1248 0.428024 -3.75814
head 14.011 -0.0716269 -2.13399
rclavicle -2.0276e-014 -4.21423e-014
rhumerus -30.6506 23.9075 -76.3523
rradius 69.215
rwrist -6.39737
rhand -28.2402 29.6216
rfingers 7.12502
rthumb -1.61794 -0.352038
lclavicle -2.0276e-014 -4.21423e-014
lhumerus -19.0214 -46.1022 75.763
lradius 52.7593
lwrist -20.0042
lhand -55.746 5.56483
lfingers 7.12502
lthumb -28.0935 33.4809
rfemur -80.278 -20.3469 16.0386
rtibia 99.1612
rfoot -30.6968 0.205562
rtoes -11.0632
lfemur -78.2295 24.9772 -21.5397
ltibia 100.525
lfoot -30.7264 6.25032
ltoes -9.17931
1657
root 8.88413 11.2891 1.61242 184.052 -88.8981 -168.412
lowerback 26.9802 3.01995 0.658734
upperback 3.4205 3.80711 0.180631
thorax -11.1168 1.60187 -1.50422
lowerneck -20.1826 0.794775 3.83269
upperneck 31.1611 0.431184 -3.67164
head 14.0291 -0.0508902 -2.1101
rclavicle -2.18663e-014 -9.14409e-015
rhumerus -30.527 23.9922 -76.3637
rradius 68.4954
rwrist -6.49815
rhand -28.1392 29.4717
rfingers 7.12502
rthumb -1.52031 -0.502613
lclavicle -2.18663e-014 -9.14409e-015
lhumerus -18.5739 -45.7851 76.1977
lradius 51.5236
lwrist -20.5911
lhand -55.6181 5.20663
lfingers 7.12502
lthumb -27.9712 33.1427
rfemur -79.754 -20.1812 15.947
rtibia 98.4422
rfoot -30.5258 0.181601
rtoes -10.9052
lfemur -77.6618 24.7151 -21.499
ltibia 99.803
lfoot -30.5868 6.3861
ltoes -8.9838
1658
root 8.89037 11.3529 1.6183 185.873 -88.8854 -170.248
lowerback 26.7603 3.05221 0.685881
upperback 3.35098 3.87101 0.225663
thorax -11.0818 1.63583 -1.48352
lowerneck -20.1909 0.820058 3.89236
upperneck 31.1946 0.407165 -3.56154
head 14.0448 -0.0385675 -2.08112
rclavicle 8.34896e-015 -2.50469e-014
rhumerus -30.3678 24.0874 -76.3842
rradius 67.7139
rwrist -6.56429
rhand -28.0207 29.3048
rfingers 7.12502
rthumb -1.40595 -0.67035
lclavicle 8.34896e-015 -2.50469e-014
lhumerus -18.1208 -45.4984 76.6128
lradius 50.2576
lwrist -21.2022
lhand -55.5061 4.94949
lfingers 7.12502
lthumb -27.8641 32.9029
rfemur -79.257 -20.0357 15.8606
rtibia 97.7169
rfoot -30.3498 0.15195
rtoes -10.7873
lfemur -77.1293 24.4277 -21.4748
ltibia 99.07
lfoot -30.4324 6.52821
ltoes -8.83819
1659
root 8.89692 11.4172 1.6242 188.006 -88.889 -172.379
lowerback 26.5175 3.07336 0.712489
upperback 3.27373 3.9204 0.264647
thorax -11.0433 1.66349 -1.46316
lowerneck -20.1996 0.832196 3.94883
upperneck 31.2283 0.358619 -3.43355
head 14.0594 -0.034624 -2.04864
rclavicle -1.15295e-014 -7.55382e-015
rhumerus -30.1759 24.1901 -76.4122
rradius 66.8736
rwrist -6.58384
rhand -27.8869 29.1297
rfingers 7.12502
rthumb -1.27665 -0.846232
lclavicle -1.15295e-014 -7.55382e-015
lhumerus -17.6671 -45.249 77.008
lradius 48.9693
lwrist -21.8287
lhand -55.4035 4.76263
lfingers 7.12502
lthumb -27.766 32.7319
rfemur -78.777 -19.906 15.7733
rtibia 96.985
rfoot -30.1714 0.114441
rtoes -10.7091
lfemur -76.6202 24.1177 -21.4662
ltibia 98.3242
lfoot -30.2677 6.67973
ltoes -8.74962
1660
root 8.90463 11.4811 1.62981 190.561 -88.9164 -174.896
lowerback 26.2426 3.08121 0.738296
upperback 3.18307 3.95302 0.298721
thorax -11.0029 1.68402 -1.44075
lowerneck -20.2089 0.830443 4.00278
upperneck 31.2654 0.286951 -3.29636
head 14.0746 -0.0396308 -2.01615
rclavicle -6.59965e-014 1.74931e-014
rhumerus -29.9566 24.2993 -76.4478
rradius 65.9826
rwrist -6.54626
rhand -27.7444 28.943
rfingers 7.12502
rthumb -1.1391 -1.03372
lclavicle -6.59965e-014 1.74931e-014
lhumerus -17.2123 -45.0401 77.3818
lradius 47.6656
lwrist -22.4645
lhand -55.2885 4.62337
lfingers 7.12502
lthumb -27.656 32.6104
rfemur -78.3448 -19.7958 15.6938
rtibia 96.253
rfoot -29.9813 0.065474
rtoes -10.6653
lfemur -76.1685 23.7768 -21.4798
ltibia 97.5715
lfoot -30.0843 6.84118
ltoes -8.71603
1661
root 8.91191 11.5455 1.63582 193.34 -88.9373 -177.625
lowerback 25.9417 3.08612 0.767932
upperback 3.08888 3.98231 0.326695
thorax -10.9517 1.70318 -1.42484
lowerneck -20.2252 0.812978 4.04277
upperneck 31.3124 0.191756 -3.14568
head 14.0947 -0.0545297 -1.98023
rclavicle -2.22639e-014 -1.82882e-014
rhumerus -29.7075 24.4148 -76.4891
rradius 65.0406
rwrist -6.45617
rhand -27.5913 28.7503
rfingers 7.12502
rthumb -0.991189 -1.22716
lclavicle -2.22639e-014 -1.82882e-014
lhumerus -16.7559 -44.876 77.7339
lradius 46.356
lwrist -23.098
lhand -55.1476 4.50962
lfingers 7.12502
lthumb -27.5213 32.5181
rfemur -77.9204 -19.6792 15.6113
rtibia 95.5116
rfoot -29.7876 0.0124431
rtoes -10.641
lfemur -75.7238 23.4358 -21.502
ltibia 96.8087
lfoot -29.9073 7.00509
ltoes -8.7059
1662
root 8.91885 11.6105 1.64184 196.233 -88.9553 -180.456
lowerback 25.6181 3.08834 0.799393
upperback 2.99235 4.00808 0.350869
thorax -10.8901 1.72094 -1.41178
lowerneck -20.2526 0.781144 4.06289
upperneck 31.3716 0.076761 -2.98115
head 14.1219 -0.0783336 -1.93912
rclavicle -3.45885e-014 -4.77083e-015
rhumerus -29.4278 24.5359 -76.5345
rradius 64.0593
rwrist -6.32452
rhand -27.4065 28.5389
rfingers 7.12502
rthumb -0.812735 -1.43933
lclavicle -3.45885e-014 -4.77083e-015
lhumerus -16.295 -44.752 78.0639
lradius 45.0452
lwrist -23.7347
lhand -54.9796 4.40822
lfingers 7.12502
lthumb -27.3606 32.4422
rfemur -77.5007 -19.5534 15.5275
rtibia 94.7606
rfoot -29.5892 -0.0450077
rtoes -10.6134
lfemur -75.2854 23.0945 -21.5281
ltibia 96.0339
lfoot -29.7325 7.17599
ltoes -8.74369
1663
root 8.92531 11.6762 1.64766 199.152 -88.9694 -183.301
lowerback 25.2722 3.08873 0.831031
upperback 2.89146 4.03116 0.371841
thorax -10.8209 1.73775 -1.4003
lowerneck -20.2875 0.737069 4.06399
upperneck 31.4421 -0.0538108 -2.80689
head 14.1553 -0.1097 -1.89386
rclavicle -2.38542e-014 1.82882e-014
rhumerus -29.1253 24.6665 -76.5899
rradius 63.0432
rwrist -6.16087
rhand -27.2067 28.3159
rfingers 7.12502
rthumb -0.619747 -1.66297
lclavicle -2.38542e-014 1.82882e-014
lhumerus -15.8396 -44.6632 78.3786
lradius 43.7454
lwrist -24.3627
lhand -54.7684 4.30224
lfingers 7.12502
lthumb -27.1586 32.368
rfemur -77.0849 -19.415 15.444
rtibia 93.9983
rfoot -29.3844 -0.109163
rtoes -10.5779
lfemur -74.8521 22.7567 -21.5556
ltibia 95.246
lfoot -29.5583 7.34636
ltoes -8.81814
1664
root 8.93094 11.743 1.65302 202.003 -88.9806 -186.073
lowerback 24.9142 3.0944 0.863016
upperback 2.79068 4.06014 0.387937
thorax -10.7437 1.75733 -1.39556
lowerneck -20.3521 0.676028 4.05158
upperneck 31.528 -0.208567 -2.62525
head 14.2013 -0.151713 -1.8481
rclavicle -1.70955e-014 -2.38542e-015
rhumerus -28.7953 24.7861 -76.6536
rradius 61.9921
rwrist -5.98185
rhand -26.9826 28.0648
rfingers 7.12502
rthumb -0.403316 -1.91455
lclavicle -1.70955e-014 -2.38542e-015
lhumerus -15.3739 -44.6344 78.6694
lradius 42.463
lwrist -24.9785
lhand -54.5229 4.20948
lfingers 7.12502
lthumb -26.9237 32.3117
rfemur -76.6592 -19.2627 15.3596
rtibia 93.2225
rfoot -29.1759 -0.176239
rtoes -10.513
lfemur -74.4101 22.4256 -21.5784
ltibia 94.4417
lfoot -29.3902 7.50827
ltoes -8.90404
1665
root 8.93572 11.8112 1.65773 204.929 -88.9924 -188.915
lowerback 24.5412 3.10258 0.891454
upperback 2.69029 4.0905 0.400083
thorax -10.6572 1.77785 -1.39255
lowerneck -20.4317 0.600874 4.02613
upperneck 31.6188 -0.381013 -2.44142
head 14.2526 -0.202269 -1.80252
rclavicle -5.56597e-015 -1.43125e-014
rhumerus -28.4443 24.9027 -76.7294
rradius 60.9154
rwrist -5.806
rhand -26.7304 27.7882
rfingers 7.12502
rthumb -0.159652 -2.19153
lclavicle -5.56597e-015 -1.43125e-014
lhumerus -14.9159 -44.6567 78.9465
lradius 41.2087
lwrist -25.5837
lhand -54.245 4.14997
lfingers 7.12502
lthumb -26.6578 32.2929
rfemur -76.2214 -19.0996 15.2735
rtibia 92.432
rfoot -28.9644 -0.250611
rtoes -10.4352
lfemur -73.9578 22.0982 -21.5971
ltibia 93.6178
lfoot -29.2231 7.66087
ltoes -8.99596
